HIERARCHY
ROOT Hips
{
	OFFSET 0.000000 0.000000 0.000000
	CHANNELS 6 Xposition Yposition Zposition Zrotation Yrotation Xrotation 
	JOINT LeftUpLeg_virtual
	{
		OFFSET 0.000000 0.000000 0.000000
		CHANNELS 3 Zrotation Yrotation Xrotation
		JOINT LeftUpLeg
		{
			OFFSET 10.205400 -3.823500 0.155100
			CHANNELS 3 Zrotation Yrotation Xrotation
			JOINT LeftLeg
			{
				OFFSET 0.708757 -12.982077 0.567790
				CHANNELS 3 Zrotation Yrotation Xrotation
				JOINT LeftFoot
				{
					OFFSET -0.708756 -10.717838 -2.184338
					CHANNELS 3 Zrotation Yrotation Xrotation
					JOINT LeftToeBase
					{
						OFFSET 0.108149 -7.191104 7.560241
						CHANNELS 3 Zrotation Yrotation Xrotation
						End Site
						{
							OFFSET 0.000000 0.000000 0.000000
						}
					}
				}
			}
		}
	}
	JOINT RightUpLeg_virtual
	{
		OFFSET 0.000000 0.000000 0.000000
		CHANNELS 3 Zrotation Yrotation Xrotation
		JOINT RightUpLeg
		{
			OFFSET -10.205400 -3.823500 0.005500
			CHANNELS 3 Zrotation Yrotation Xrotation
			JOINT RightLeg
			{
				OFFSET -0.708756 -12.982134 0.610632
				CHANNELS 3 Zrotation Yrotation Xrotation
				JOINT RightFoot
				{
					OFFSET 0.708754 -10.717769 -1.945823
					CHANNELS 3 Zrotation Yrotation Xrotation
					JOINT RightToeBase
					{
						OFFSET -0.108140 -7.191069 7.372968
						CHANNELS 3 Zrotation Yrotation Xrotation
						End Site
						{
							OFFSET 0.000000 0.000000 0.000000
						}
					}
				}
			}
		}
	}
	JOINT Spine_virtual
	{
		OFFSET 0.000000 0.000000 0.000000
		CHANNELS 3 Zrotation Yrotation Xrotation
		JOINT Spine
		{
			OFFSET 0.000000 6.876099 0.125700
			CHANNELS 3 Zrotation Yrotation Xrotation
			JOINT Spine1
			{
				OFFSET 0.000000 8.022060 0.146608
				CHANNELS 3 Zrotation Yrotation Xrotation
				JOINT Spine2
				{
					OFFSET 0.000000 9.168068 0.167552
					CHANNELS 3 Zrotation Yrotation Xrotation
					JOINT Neck_virtual
					{
						OFFSET 0.000000 0.000000 0.000000
						CHANNELS 3 Zrotation Yrotation Xrotation
						JOINT Neck
						{
							OFFSET 0.000000 10.314075 0.188496
							CHANNELS 3 Zrotation Yrotation Xrotation
							JOINT Head
							{
								OFFSET 0.000000 7.643700 -2.377400
								CHANNELS 3 Zrotation Yrotation Xrotation
								End Site
								{
									OFFSET 0.000000 0.000000 0.000000
								}
							}
						}
					}
					JOINT LeftShoulder_virtual
					{
						OFFSET 0.000000 0.000000 0.000000
						CHANNELS 3 Zrotation Yrotation Xrotation
						JOINT LeftShoulder
						{
							OFFSET 4.392200 8.824978 0.174984
							CHANNELS 3 Zrotation Yrotation Xrotation
							JOINT LeftArm
							{
								OFFSET 8.771219 -2.981674 -0.026999
								CHANNELS 3 Zrotation Yrotation Xrotation
								JOINT LeftForeArm
								{
									OFFSET 8.512804 0.000000 -0.000000
									CHANNELS 3 Zrotation Yrotation Xrotation
									JOINT LeftHand
									{
										OFFSET 18.484802 0.000000 -0.000000
										CHANNELS 3 Zrotation Yrotation Xrotation
										End Site
										{
											OFFSET 0.000000 0.000000 0.000000
										}
									}
								}
							}
						}
					}
					JOINT RightShoulder_virtual
					{
						OFFSET 0.000000 0.000000 0.000000
						CHANNELS 3 Zrotation Yrotation Xrotation
						JOINT RightShoulder
						{
							OFFSET -4.392200 8.824993 0.141379
							CHANNELS 3 Zrotation Yrotation Xrotation
							JOINT RightArm
							{
								OFFSET -8.771282 -2.981682 -0.094208
								CHANNELS 3 Zrotation Yrotation Xrotation
								JOINT RightForeArm
								{
									OFFSET -8.494598 0.000000 0.000000
									CHANNELS 3 Zrotation Yrotation Xrotation
									JOINT RightHand
									{
										OFFSET -18.483803 0.000000 0.000001
										CHANNELS 3 Zrotation Yrotation Xrotation
										End Site
										{
											OFFSET 0.000000 0.000000 0.000000
										}
									}
								}
							}
						}
					}
				}
			}
		}
	}
}
MOTION
Frames: 7
Frame Time: 0.033333
1.281756 36.524166 16.163500 -179.999008 0.115173 -179.781603 -2.662687 -3.890643 9.414987 -6.883675 1.809394 -15.211256 12.932970 6.316710 16.213066 -1.640897 -0.844521 10.245844 0.000000 0.000000 0.000000 2.310138 -1.122027 7.833394 -3.010265 -3.002455 -11.911972 -5.966268 1.686208 16.204200 6.228929 3.182440 9.812367 0.000000 0.000000 0.000000 1.524773 0.263653 -3.314973 -4.508990 3.700570 -5.232359 -0.749417 -3.265720 3.739129 0.018809 -0.095024 0.069436 -1.382162 -1.390087 6.347997 1.137213 -1.068537 3.034699 0.000000 0.000000 0.000000 0.145871 -0.683731 3.708271 5.301080 4.311183 -3.837189 5.736605 17.250917 -39.353733 -2.768674 -44.321214 -4.935546 0.000000 0.000000 0.000000 -3.422461 0.110805 3.244691 7.011131 -12.539264 -8.507504 11.295991 -21.157766 -31.640933 -1.399309 39.766915 -3.560079 0.000000 0.000000 0.000000 
1.281994 36.525826 16.168228 179.940459 0.080597 -179.677921 -2.848787 -4.013416 9.545263 -6.759732 1.843327 -15.060441 13.155192 6.077253 16.415805 -1.812962 -0.985960 10.619484 0.000000 0.000000 0.000000 2.158719 -1.137025 7.964197 -2.872307 -3.110915 -11.772070 -5.959395 1.497748 16.405425 5.861936 2.810066 10.109906 0.000000 0.000000 0.000000 1.484267 0.340148 -3.359981 -4.538214 3.615882 -5.253830 -0.789551 -3.347484 3.735619 -0.030282 0.001741 0.079865 -1.334995 -1.635668 6.397472 1.163693 -1.043605 3.100170 0.000000 0.000000 0.000000 0.185345 -0.702224 3.717522 5.264759 4.271786 -3.845796 5.654596 17.240420 -39.281183 -2.653353 -44.258700 -5.038700 0.000000 0.000000 0.000000 -3.357450 0.057746 3.265961 6.998317 -12.566601 -8.522605 11.330540 -21.165768 -31.683561 -1.396827 39.727976 -3.525972 0.000000 0.000000 0.000000 
1.283602 36.526516 16.170866 -179.988885 0.084279 -179.668386 -2.762956 -4.005554 9.548852 -6.775811 1.850456 -15.099747 13.143523 6.104922 16.415784 -1.838591 -1.016079 10.592181 0.000000 0.000000 0.000000 2.261581 -1.123698 7.981845 -2.843534 -3.095441 -11.775983 -5.920233 1.631384 16.400616 5.797035 2.748580 10.138463 0.000000 0.000000 0.000000 1.523732 0.324702 -3.331877 -4.511854 3.601720 -5.239497 -0.762895 -3.392624 3.726076 -0.009261 -0.042988 0.068364 -1.366562 -1.533664 6.437425 1.165933 -1.048714 3.116352 0.000000 0.000000 0.000000 0.174957 -0.651964 3.734100 5.250120 4.295976 -3.817492 5.544860 17.230981 -39.283638 -2.692501 -44.314407 -4.985088 0.000000 0.000000 0.000000 -3.396110 0.106308 3.368621 6.998028 -12.495115 -8.587985 11.323836 -21.176218 -31.587726 -1.409125 39.693013 -3.545469 0.000000 0.000000 0.000000 
1.282383 36.525921 16.169611 179.957712 0.157269 -179.661405 -2.815434 -4.013687 9.588753 -6.788102 1.897567 -15.107152 13.156036 6.171489 16.446901 -1.843512 -1.033306 10.604305 0.000000 0.000000 0.000000 2.224163 -1.134908 7.984503 -2.881689 -3.017725 -11.807991 -5.769889 2.100660 16.295476 5.716625 2.555812 10.169339 0.000000 0.000000 0.000000 1.504985 0.314263 -3.319850 -4.533925 3.591952 -5.230424 -0.767274 -3.378002 3.744844 -0.034649 -0.018882 0.072658 -1.317043 -1.539700 6.440736 1.142182 -1.055674 3.204024 0.000000 0.000000 0.000000 0.221993 -0.663853 3.695742 5.217237 4.265136 -3.783499 5.420863 17.219103 -39.168823 -2.580361 -44.287230 -5.104405 0.000000 0.000000 0.000000 -3.358301 0.109113 3.334125 6.984729 -12.439567 -8.486182 11.390583 -21.204754 -31.588962 -1.519945 39.667488 -3.654793 0.000000 0.000000 0.000000 
1.280889 36.526783 16.163866 179.949748 0.130179 -179.637868 -2.827022 -4.028672 9.596629 -6.771310 1.907676 -15.132957 13.135320 6.194130 16.440218 -1.842409 -1.043151 10.584540 0.000000 0.000000 0.000000 2.224201 -1.131052 8.004019 -2.896657 -3.052421 -11.795586 -5.785586 2.037706 16.321301 5.709175 2.530755 10.172381 0.000000 0.000000 0.000000 1.480571 0.272560 -3.317997 -4.552671 3.567767 -5.256893 -0.710211 -3.401968 3.720790 0.032747 -0.041040 0.069779 -1.377911 -1.346920 6.427774 1.119229 -1.065147 3.227255 0.000000 0.000000 0.000000 0.160225 -0.613796 3.711436 5.171876 4.294017 -3.704326 5.234141 17.229460 -39.095030 -2.565582 -44.337695 -5.107109 0.000000 0.000000 0.000000 -3.414748 0.147156 3.317795 6.978902 -12.347897 -8.589534 11.491569 -21.294383 -31.646520 -1.449413 39.682262 -3.604453 0.000000 0.000000 0.000000 
1.277991 36.528095 16.155537 179.941921 0.188608 -179.642349 -2.845096 -4.008147 9.630435 -6.728200 1.905861 -15.110672 13.097101 6.176172 16.434072 -1.782417 -1.003551 10.579452 0.000000 0.000000 0.000000 2.190094 -1.137471 8.002390 -2.867141 -3.097102 -11.798910 -5.909196 1.731828 16.320759 5.809952 2.755251 10.169376 0.000000 0.000000 0.000000 1.495501 0.292738 -3.322429 -4.558344 3.614247 -5.242314 -0.727385 -3.361198 3.779722 0.027230 -0.010823 0.013224 -1.323460 -1.393063 6.451704 1.106930 -1.062769 3.296371 0.000000 0.000000 0.000000 0.177978 -0.664126 3.735871 5.186023 4.231730 -3.792629 4.957266 17.333401 -39.049281 -2.565502 -44.471908 -5.100127 0.000000 0.000000 0.000000 -3.363359 0.111654 3.345067 6.943686 -12.301978 -8.661247 11.471782 -21.394335 -31.622550 -1.386418 39.648780 -3.552345 0.000000 0.000000 0.000000 
1.275532 36.529259 16.144886 -179.983052 0.152562 -179.619782 -2.790333 -4.026991 9.619395 -6.737828 1.933733 -15.120722 13.064859 6.243422 16.454085 -1.824690 -1.036870 10.535393 0.000000 0.000000 0.000000 2.265414 -1.161226 7.998958 -2.881426 -3.136672 -11.784067 -5.929021 1.684436 16.307799 5.843323 2.833702 10.186751 0.000000 0.000000 0.000000 1.532669 0.284442 -3.319499 -4.535220 3.609749 -5.255811 -0.692476 -3.383398 3.770907 0.009735 -0.021187 0.026896 -1.300291 -1.260782 6.326471 1.072316 -1.075138 3.286023 0.000000 0.000000 0.000000 0.213985 -0.666588 3.700106 5.161686 4.204278 -3.797406 4.801654 17.341746 -39.140546 -2.600960 -44.429025 -5.025228 0.000000 0.000000 0.000000 -3.342946 0.104522 3.272734 6.905112 -12.213669 -8.468507 11.602582 -21.487538 -31.725703 -1.580967 39.587623 -3.758494 0.000000 0.000000 0.000000 
